<svg width="125" height="32" viewBox="0 0 125 32" fill="none" xmlns="http://www.w3.org/2000/svg">
<path d="M31.0729 30.3161C30.7709 30.3161 30.5444 30.2785 30.3971 30.1995C30.2499 30.1206 30.1517 29.9889 30.1027 29.7971C30.0762 29.7143 30.0573 29.6128 30.046 29.4962L29.627 15.9508C29.627 12.78 28.7397 9.77095 26.7917 7.31483C26.5236 6.98007 26.2442 6.65285 25.9422 6.34067C25.8591 6.25416 25.7761 6.17139 25.693 6.08864C24.7152 5.11071 23.6166 4.29828 22.4273 3.65886C21.8875 3.36925 21.3325 3.11347 20.7548 2.89908C19.3353 2.36497 17.8176 2.06031 16.2622 2.00765C16.2093 2.00765 16.1564 2.00765 16.1036 2.00389C15.9979 2.00389 15.8959 2.00012 15.794 2.00012C15.6808 2.00012 15.5675 2.00389 15.458 2.00765H15.4542C15.4014 2.00765 15.3523 2.00766 15.2957 2.01142C13.744 2.06408 12.2338 2.36874 10.8181 2.90661C10.248 3.11724 9.69679 3.37301 9.16069 3.65886C7.97523 4.29828 6.87282 5.11071 5.89122 6.08864C5.82327 6.16011 5.74776 6.23158 5.6798 6.30304C5.37777 6.61899 5.09462 6.9387 4.83035 7.27346C2.95399 9.61298 1.88934 12.4678 1.79495 15.4919C1.79118 15.5521 1.79495 15.6123 1.79495 15.6762L1.30415 29.4962C1.2966 29.6316 1.2815 29.7444 1.26262 29.8347C1.21732 30.0115 1.14936 30.1356 1.03988 30.1995C0.934167 30.2785 0.768051 30.3161 0.541529 30.3161C0.518877 30.3161 0.5 30.35 0.5 30.429C0.5 30.508 0.518877 30.5456 0.541529 30.5456L1.31925 30.5268C1.74587 30.5004 2.08943 30.4891 2.35748 30.4891C2.67461 30.4891 3.0748 30.5004 3.5505 30.5268L4.3471 30.5456C4.37353 30.5456 4.38485 30.508 4.38485 30.429C4.38485 30.35 4.37353 30.3161 4.3471 30.3161C4.04129 30.3161 3.81855 30.2785 3.66753 30.1995C3.52407 30.1206 3.42591 29.9889 3.37305 29.7971C3.34663 29.7143 3.38816 29.6128 3.37305 29.4962V24.5491C3.27489 21.4009 3.73171 18.2865 5.42308 15.6273C5.74021 15.127 6.05357 14.6794 6.33672 14.3409C6.6765 13.9197 7.04271 13.5172 7.42025 13.1298C7.50331 13.047 7.58637 12.9605 7.66942 12.874C9.56088 10.9934 11.7544 9.51519 14.1404 8.49588C14.5028 8.34167 14.8653 8.19873 15.2353 8.06709C15.39 8.00691 15.5486 7.95424 15.7072 7.89782C15.8922 7.96177 16.0772 8.02572 16.2659 8.09342C16.651 8.23259 17.0286 8.38681 17.4023 8.55231C19.7393 9.57162 21.8875 11.0272 23.7449 12.874C23.8771 13.0019 24.0017 13.1335 24.1262 13.2652C24.1338 13.2727 24.1413 13.2765 24.1451 13.284C24.5264 13.6865 24.8889 14.0964 25.2324 14.5215C25.24 14.529 25.2475 14.5365 25.2551 14.5515C25.4212 14.7547 25.5949 14.9954 25.7723 15.2624C27.6185 18.0044 28.147 21.2805 28.03 24.5792V29.4962C28.0224 29.6316 28.0073 29.7444 27.9884 29.8347C27.9469 30.0115 27.8752 30.1356 27.7695 30.1995C27.6638 30.2785 27.4939 30.3161 27.2711 30.3161C27.2447 30.3161 27.2296 30.35 27.2296 30.429C27.2296 30.508 27.2447 30.5456 27.2711 30.5456L28.0451 30.5268C28.4717 30.5004 28.819 30.4891 29.0833 30.4891C29.4042 30.4891 29.8006 30.5004 30.2801 30.5268L31.0729 30.5456C31.0994 30.5456 31.1145 30.508 31.1145 30.429C31.1145 30.35 31.0994 30.3161 31.0729 30.3161ZM24.6095 6.15637C23.8469 6.07362 23.0842 6.036 22.3103 6.036C21.7893 6.036 21.2758 6.05479 20.7624 6.08864C20.4415 5.8893 20.1168 5.70125 19.7808 5.52071H19.777C19.7506 5.50566 19.7242 5.49062 19.7015 5.47557C19.071 5.13706 18.4292 4.82486 17.7685 4.54652C17.5382 4.44873 17.3079 4.35846 17.0776 4.26819C17.4703 4.1704 17.8705 4.08765 18.2707 4.01243C19.0484 3.86574 19.8412 3.76419 20.6454 3.71153C22.0875 4.27948 23.4278 5.10319 24.6095 6.16011V6.15637ZM14.4424 2.86524C14.4651 2.86524 14.484 2.86523 14.5104 2.85771C14.9332 2.81633 15.3598 2.79751 15.794 2.79751C15.8959 2.79751 15.9979 2.79752 16.1036 2.80128C16.4434 2.8088 16.7832 2.82762 17.1154 2.86147C17.6628 2.91413 18.2027 3.00064 18.7275 3.121C18.3462 3.18118 17.9686 3.24889 17.5911 3.33163H17.5873C17.1607 3.4219 16.7303 3.5272 16.3037 3.6438C16.1187 3.69646 15.9375 3.75288 15.7487 3.8093C15.5864 3.75664 15.424 3.71151 15.2541 3.66637C15.2504 3.65885 15.2466 3.65886 15.2428 3.65886C14.8313 3.54226 14.416 3.43694 13.9969 3.34667C13.9856 3.34667 13.9705 3.3429 13.9592 3.33914C13.5854 3.26015 13.2041 3.18869 12.8228 3.12851C13.3514 3.00815 13.895 2.9179 14.4424 2.86524ZM10.9313 3.71527C11.7242 3.77169 12.5094 3.87324 13.2834 4.01993C13.2909 4.01993 13.2985 4.01994 13.306 4.0237C13.6836 4.09516 14.0536 4.17792 14.4236 4.26443C14.1933 4.3547 13.963 4.44497 13.7327 4.54276C13.1022 4.80981 12.4981 5.10696 11.8978 5.41538C11.8978 5.41914 11.8941 5.41915 11.8941 5.41915H11.8903L11.8865 5.42668C11.8752 5.4342 11.8639 5.44172 11.8525 5.44548C11.4712 5.65235 11.0975 5.86673 10.7312 6.09241C10.1914 6.0548 9.65149 6.036 9.10784 6.036C8.39807 6.036 7.69585 6.06984 7.00118 6.13754C8.17155 5.0919 9.50048 4.27946 10.9313 3.71527ZM2.60665 15.2323C2.61798 15.033 2.62931 14.8374 2.64818 14.6456C2.65574 14.6305 2.65574 14.6193 2.65574 14.608C2.93889 11.7832 4.12435 9.15786 6.06867 7.0553C7.06536 6.90485 8.08094 6.83716 9.10784 6.83716C9.27395 6.83716 9.44384 6.83714 9.61374 6.8409C8.65102 7.5217 7.74493 8.28901 6.89925 9.13154C5.4193 10.6097 4.17721 12.2647 3.19184 14.0739L3.15408 14.1453C2.96154 14.5027 2.78032 14.8637 2.60665 15.2323ZM13.9365 7.71729C13.8044 7.77747 13.6685 7.83766 13.5363 7.89408C11.2711 8.90211 9.21732 10.2825 7.42025 12.0014C7.31076 12.1067 7.20505 12.2083 7.10312 12.3136C6.83884 12.5731 6.58212 12.8439 6.33672 13.1185C4.93228 14.6644 3.77324 16.3871 2.88226 18.264V16.6015C3.0295 16.2253 3.19184 15.8567 3.36173 15.4956C3.37305 15.4768 3.38438 15.458 3.39193 15.4355C4.09037 13.9723 4.96626 12.5844 6.01204 11.3056C6.06867 11.2341 6.1253 11.1664 6.18193 11.1025C6.58589 10.6172 7.01251 10.1471 7.46555 9.6995C7.92237 9.24062 8.40184 8.80807 8.89642 8.40185C8.94172 8.36047 8.9908 8.32286 9.03611 8.28525C9.64394 7.78876 10.2744 7.33363 10.9313 6.91237C11.2371 6.9387 11.5392 6.97255 11.8412 7.01016C11.8563 7.01016 11.8676 7.01393 11.8827 7.01393C12.1885 7.05907 12.4943 7.10421 12.8001 7.16063C13.3476 7.25842 13.895 7.37879 14.4311 7.51795C14.265 7.58189 14.1026 7.64959 13.9365 7.71729ZM15.7072 7.06283C15.0427 6.84843 14.3669 6.66789 13.6874 6.5212C13.5061 6.47983 13.3249 6.44598 13.1475 6.41213C12.9625 6.37452 12.7775 6.34443 12.5887 6.31434H12.5849C12.4113 6.28425 12.2376 6.25791 12.0677 6.23534C12.1885 6.16764 12.3093 6.10371 12.4302 6.036C12.7095 5.88931 12.9927 5.75015 13.2796 5.61474C13.2872 5.61474 13.2985 5.60721 13.306 5.60345C14.0989 5.23108 14.9181 4.91137 15.7525 4.64432C16.6359 4.92642 17.5005 5.26868 18.3348 5.66738C18.5991 5.7915 18.8521 5.92316 19.1126 6.05857C19.2145 6.11499 19.3164 6.16765 19.4184 6.22783C19.2636 6.24664 19.1126 6.2692 18.9578 6.29177C18.769 6.32186 18.5802 6.35571 18.3915 6.38957H18.3877C18.214 6.42342 18.0441 6.45349 17.8742 6.49111C17.138 6.64532 16.4169 6.83715 15.7072 7.06283ZM28.5397 18.2715C27.6826 16.4736 26.5802 14.8073 25.2551 13.3066L25.2324 13.284C24.938 12.953 24.6321 12.6295 24.315 12.3136C24.2584 12.2572 24.2055 12.2045 24.1451 12.1481C24.1413 12.1406 24.1338 12.1331 24.1262 12.1255C22.3292 10.3841 20.2754 8.98108 18.0064 7.95049C17.8289 7.8715 17.6553 7.79252 17.4778 7.71729C17.3117 7.64959 17.1531 7.58189 16.9833 7.51795C17.5949 7.35998 18.2102 7.22832 18.837 7.123C19.1126 7.0741 19.3919 7.03651 19.6675 6.99889C19.962 6.96128 20.2603 6.93119 20.5623 6.90486C20.7511 6.88982 23.0465 8.77798 23.0465 8.77798C23.3863 9.07136 23.7147 9.37979 24.0356 9.6995C24.3565 10.0192 24.6661 10.3464 24.9644 10.6887L25.2551 11.0084V11.0235C26.3764 12.3475 27.3127 13.7955 28.0602 15.3264C28.2301 15.6837 28.3924 16.041 28.5397 16.4021V18.2715ZM28.2792 14.0175C27.2976 12.2308 26.0668 10.5947 24.6057 9.13154C23.7525 8.28901 22.8464 7.5217 21.8837 6.8409C22.0234 6.83714 22.1706 6.83716 22.3103 6.83716C23.4052 6.83716 24.4849 6.91989 25.5496 7.08163C27.4901 9.19924 28.6642 11.8434 28.9398 14.6794C28.9625 14.9277 28.9814 15.1872 28.9927 15.4392C28.7662 14.9578 28.5321 14.4839 28.2792 14.0175Z" fill="#1C1A18"/>
<path d="M46.6283 30.5813C45.9335 30.5813 45.1115 30.5523 44.1574 30.4893C43.81 30.4699 43.3794 30.4456 42.8559 30.4262C42.3568 30.4069 41.7941 30.3972 41.1678 30.3972L38.7655 30.4262C38.33 30.4456 37.7477 30.4553 37.0089 30.4553C36.9649 30.4553 36.9453 30.3923 36.9453 30.2663C36.9453 30.1403 36.9649 30.0773 37.0089 30.0773C37.7037 30.0773 38.2126 30.024 38.5355 29.9222C38.8584 29.8204 39.0786 29.6217 39.1862 29.3309C39.3183 29.0207 39.3819 28.5507 39.3819 27.9303V13.5021C39.3819 12.8769 39.3183 12.4213 39.1862 12.1305C39.0786 11.8398 38.8633 11.6411 38.5355 11.5393C38.2321 11.4133 37.7428 11.3503 37.0725 11.3503C37.0089 11.3503 36.9747 11.2873 36.9747 11.1612C36.9747 11.0352 37.0089 10.9722 37.0725 10.9722L38.7948 11.0013C39.7929 11.0449 40.5807 11.0643 41.1678 11.0643C42.0583 11.0643 42.9635 11.0353 43.898 10.9722C45.0234 10.9286 45.7818 10.9092 46.1732 10.9092C48.3603 10.9092 50.2979 11.326 51.9908 12.1548C53.7033 12.9835 55.0244 14.1176 55.954 15.5522C56.8837 16.9868 57.3534 18.5959 57.3534 20.3842C57.3534 22.4004 56.8641 24.1839 55.8904 25.7445C54.9363 27.2809 53.6397 28.478 51.9908 29.3261C50.3664 30.1549 48.5805 30.5716 46.6283 30.5716V30.5813ZM46.3004 29.8641C47.6851 29.8641 48.9083 29.5297 49.9701 28.8657C51.0318 28.1823 51.8538 27.1742 52.441 25.8414C53.0477 24.5135 53.351 22.9238 53.351 21.0724C53.351 19.221 53.0672 17.7089 52.5046 16.2743C51.9419 14.8204 51.1395 13.6766 50.1022 12.8479C49.0649 12.0191 47.8612 11.6023 46.4961 11.6023C45.131 11.6023 44.2308 11.7283 43.7366 11.9755C43.2375 12.2226 42.988 12.7558 42.988 13.5651V27.5862C42.988 28.4149 43.213 29.0111 43.6681 29.36C44.1231 29.6944 44.9989 29.8592 46.3004 29.8592V29.8641Z" fill="#1C1A18"/>
<path d="M72.4288 18.46C72.4288 17.8347 72.3847 17.3792 72.2967 17.0884C72.233 16.7782 72.0814 16.5601 71.8416 16.4341C71.6263 16.3081 71.2789 16.2451 70.8043 16.2451C70.7407 16.2451 70.7065 16.1821 70.7065 16.0561C70.7065 15.9301 70.7407 15.8671 70.8043 15.8671L72.2967 15.8961C73.1186 15.9398 73.7498 15.9592 74.1804 15.9592C74.5718 15.9592 75.1541 15.9398 75.9369 15.8961L77.3999 15.8671C77.4635 15.8671 77.4977 15.9301 77.4977 16.0561C77.4977 16.1821 77.4635 16.2451 77.3999 16.2451C76.9008 16.2451 76.5339 16.3081 76.2941 16.4341C76.0544 16.5359 75.8929 16.7346 75.8048 17.0254C75.7168 17.3162 75.6727 17.7717 75.6727 18.3969V27.9301C75.6727 28.5553 75.7168 29.0206 75.8048 29.3307C75.8929 29.6215 76.0446 29.8203 76.2599 29.922C76.4996 30.0238 76.8568 30.0771 77.3314 30.0771C77.395 30.0771 77.4292 30.1401 77.4292 30.2662C77.4292 30.3922 77.395 30.4551 77.3314 30.4551L75.2177 30.4261L73.0404 30.4551C72.781 30.4551 72.6049 30.4261 72.5217 30.3631C72.4581 30.3001 72.4239 30.1353 72.4239 29.8639V18.46H72.4288ZM73.6618 26.5634C72.6881 28.0367 71.6165 29.1175 70.4472 29.8057C69.2973 30.4891 68.0301 30.8332 66.6454 30.8332C65.1531 30.8332 63.8956 30.4503 62.8779 29.6797C61.8602 28.9091 61.3514 27.7265 61.3514 26.1272V18.3969C61.3514 17.7717 61.3171 17.3162 61.2535 17.0254C61.1899 16.7346 61.0676 16.5359 60.8963 16.4341C60.7251 16.3081 60.4511 16.2451 60.0841 16.2451C60.0401 16.2451 60.0205 16.1821 60.0205 16.0561C60.0205 15.9301 60.0401 15.8671 60.0841 15.8671L61.3514 15.8961C62.0461 15.9398 62.6088 15.9592 63.0394 15.9592C63.558 15.9592 64.2088 15.9398 64.9867 15.8961L66.2882 15.8671C66.3323 15.8671 66.3518 15.9301 66.3518 16.0561C66.3518 16.1821 66.3323 16.2451 66.2882 16.2451C65.7892 16.2451 65.4222 16.3081 65.1825 16.4341C64.9427 16.5601 64.7812 16.7782 64.6932 17.0884C64.6051 17.3792 64.5611 17.8347 64.5611 18.46V25.376C64.5611 26.956 64.8644 28.0852 65.4711 28.7734C66.0974 29.4568 66.9243 29.8009 67.942 29.8009C69.9579 29.8009 71.6802 28.565 73.1089 26.0933L73.6618 26.5585V26.5634Z" fill="#1C1A18"/>
<path d="M86.8426 30.082C86.8866 30.082 86.9062 30.145 86.9062 30.271C86.9062 30.397 86.8866 30.46 86.8426 30.46C86.1919 30.46 85.683 30.4503 85.316 30.4309L83.1045 30.4019L80.9908 30.4309C80.5993 30.4503 80.0611 30.46 79.3663 30.46C79.3223 30.46 79.3027 30.397 79.3027 30.271C79.3027 30.145 79.3223 30.082 79.3663 30.082C79.9731 30.082 80.4183 30.0287 80.6972 29.9269C80.981 29.8251 81.1718 29.6264 81.2843 29.3356C81.392 29.0254 81.4458 28.5553 81.4458 27.935V18.4018C81.4458 17.7766 81.392 17.3211 81.2843 17.0303C81.1963 16.7395 81.0152 16.5407 80.7314 16.439C80.4477 16.313 80.0171 16.2499 79.4299 16.2499C79.3663 16.2499 79.3321 16.187 79.3321 16.061C79.3321 15.9349 79.3663 15.8719 79.4299 15.8719L81.0201 15.901C81.8862 15.9446 82.5809 15.964 83.0996 15.964C83.5106 15.964 83.8922 15.9543 84.2347 15.9349C84.5821 15.9156 84.8855 15.8913 85.1448 15.8719C85.8591 15.8089 86.5295 15.7798 87.1606 15.7798C88.8487 15.7798 90.1404 16.0416 91.026 16.5601C91.9165 17.0787 92.3568 17.8251 92.3568 18.8041C92.3568 19.6571 92.0437 20.4471 91.4125 21.1741C90.8058 21.901 89.9593 22.4826 88.878 22.9188C87.8163 23.3356 86.6469 23.544 85.3699 23.544C84.6751 23.544 84.083 23.5004 83.584 23.418L83.5497 22.7346C84.0928 22.88 84.7729 22.9527 85.5949 22.9527C86.8279 22.9527 87.6842 22.6813 88.1637 22.1434C88.6383 21.5812 88.878 20.7524 88.878 19.6522C88.878 17.4907 88.056 16.4099 86.4071 16.4099C85.9521 16.4099 85.6145 16.4632 85.3992 16.565C85.1839 16.6668 85.0323 16.8655 84.9442 17.1562C84.8561 17.4277 84.8121 17.8638 84.8121 18.4648V27.9398C84.8121 28.5844 84.8561 29.0497 84.9442 29.3405C85.0518 29.6313 85.2378 29.83 85.4971 29.9318C85.7809 30.0335 86.2212 30.0868 86.8279 30.0868L86.8426 30.082ZM96.7849 30.082C96.8485 30.082 96.8827 30.145 96.8827 30.271C96.8827 30.397 96.8485 30.46 96.7849 30.46H91.4566C91.1336 30.46 90.5367 29.8154 89.6707 28.5262C88.8046 27.2177 87.7869 25.4535 86.6175 23.229L89.2156 22.5747C90.4046 24.5085 91.4272 26.0109 92.2688 27.0917C93.1348 28.1724 93.9128 28.9382 94.6075 29.3986C95.3219 29.8542 96.046 30.082 96.7849 30.082Z" fill="#1C1A18"/>
<path d="M102.725 27.9351C102.725 28.5603 102.778 29.0255 102.886 29.3357C102.994 29.6265 103.189 29.8252 103.473 29.927C103.757 30.0288 104.212 30.0821 104.838 30.0821C104.882 30.0821 104.902 30.1451 104.902 30.2711C104.902 30.3971 104.882 30.4601 104.838 30.4601C104.168 30.4601 103.649 30.4504 103.277 30.431L101.066 30.4019L98.9522 30.431C98.5608 30.4504 98.0225 30.4601 97.3278 30.4601C97.2837 30.4601 97.2642 30.3971 97.2642 30.2711C97.2642 30.1451 97.2837 30.0821 97.3278 30.0821C97.954 30.0821 98.4091 30.0288 98.6929 29.927C98.9962 29.8252 99.2017 29.6265 99.3094 29.3357C99.417 29.0255 99.4708 28.5554 99.4708 27.9351V18.4019C99.4708 17.7767 99.417 17.3211 99.3094 17.0303C99.2017 16.7395 98.9962 16.5408 98.6929 16.439C98.4091 16.313 97.954 16.25 97.3278 16.25C97.2837 16.25 97.2642 16.187 97.2642 16.061C97.2642 15.935 97.2837 15.872 97.3278 15.872L98.9522 15.9011C99.8182 15.9447 100.523 15.9641 101.066 15.9641C101.653 15.9641 102.397 15.9447 103.307 15.9011L104.833 15.872C104.877 15.872 104.897 15.935 104.897 16.061C104.897 16.187 104.877 16.25 104.833 16.25C104.227 16.25 103.772 16.313 103.468 16.439C103.184 16.5651 102.994 16.7831 102.881 17.0933C102.774 17.3841 102.72 17.8397 102.72 18.4649V27.9399L102.725 27.9351Z" fill="#1C1A18"/>
<path d="M111.977 27.872C111.977 28.4972 112.011 28.9624 112.075 29.2726C112.163 29.5634 112.315 29.7718 112.53 29.8978C112.77 30.0238 113.127 30.0868 113.602 30.0868C113.646 30.0868 113.665 30.1498 113.665 30.2758C113.665 30.4018 113.646 30.4648 113.602 30.4648C112.975 30.4648 112.476 30.4552 112.109 30.4358L110.226 30.4067L108.44 30.4358C108.092 30.4552 107.608 30.4648 106.977 30.4648C106.933 30.4648 106.913 30.4018 106.913 30.2758C106.913 30.1498 106.933 30.0868 106.977 30.0868C107.476 30.0868 107.843 30.0335 108.082 29.9317C108.342 29.83 108.518 29.6312 108.601 29.3404C108.689 29.0303 108.733 28.5601 108.733 27.9398V18.4066C108.733 17.7814 108.689 17.3259 108.601 17.0351C108.513 16.7443 108.352 16.5456 108.112 16.4438C107.897 16.3178 107.549 16.2548 107.075 16.2548C107.011 16.2548 106.977 16.1918 106.977 16.0658C106.977 15.9397 107.011 15.8768 107.075 15.8768L109.188 15.9058L111.366 15.8768C111.625 15.8768 111.786 15.9204 111.855 16.0027C111.943 16.0658 111.987 16.2209 111.987 16.468V27.872H111.977ZM110.744 19.7685C111.718 18.3146 112.78 17.2435 113.929 16.5601C115.079 15.8525 116.366 15.4987 117.795 15.4987C119.312 15.4987 120.569 15.9155 121.562 16.7443C122.56 17.5537 123.055 18.9543 123.055 20.9511V27.9301C123.055 28.5553 123.089 29.0206 123.152 29.3307C123.216 29.6215 123.338 29.8203 123.51 29.922C123.681 30.0238 123.955 30.0771 124.322 30.0771C124.366 30.0771 124.385 30.1401 124.385 30.2661C124.385 30.3922 124.366 30.4551 124.322 30.4551C123.779 30.4551 123.358 30.4455 123.055 30.4261L121.367 30.397L119.419 30.4261C119.096 30.4455 118.661 30.4551 118.118 30.4551C118.074 30.4551 118.054 30.3922 118.054 30.2661C118.054 30.1401 118.074 30.0771 118.118 30.0771C118.617 30.0771 118.984 30.0141 119.223 29.8881C119.463 29.7621 119.625 29.5537 119.713 29.2629C119.801 28.9527 119.845 28.4826 119.845 27.8623V21.6635C119.845 19.7104 119.542 18.3727 118.935 17.6457C118.348 16.8994 117.535 16.5262 116.498 16.5262C115.461 16.5262 114.57 16.817 113.704 17.3986C112.858 17.9801 112.06 18.9349 111.302 20.2677L110.749 19.7685H110.744Z" fill="#1C1A18"/>
</svg>
