<svg width="600" height="180" viewBox="0 0 600 180" fill="none" xmlns="http://www.w3.org/2000/svg">
<path d="M180.482 175.645C178.769 175.645 177.483 175.431 176.648 174.981C175.812 174.531 175.255 173.782 174.977 172.689C174.827 172.218 174.72 171.64 174.655 170.976L172.277 82.4468C172.277 64.3897 167.243 47.2537 156.189 33.2665C154.668 31.3601 153.083 29.4966 151.369 27.7188C150.897 27.2261 150.426 26.7548 149.955 26.2835C144.406 20.7143 138.172 16.0877 131.424 12.4463C128.361 10.7969 125.211 9.34035 121.934 8.11941C113.879 5.07777 105.267 3.34276 96.4405 3.04288C96.1406 3.04288 95.8406 3.04286 95.5407 3.02144C94.9409 3.02144 94.3624 3 93.784 3C93.1413 3 92.4987 3.02146 91.8774 3.04288H91.856C91.5561 3.04288 91.2776 3.0429 90.9562 3.06432C82.1514 3.3642 73.5823 5.09923 65.5487 8.16229C62.3138 9.36181 59.1861 10.8184 56.1441 12.4463C49.4173 16.0877 43.1618 20.7143 37.5919 26.2835C37.2062 26.6905 36.7778 27.0975 36.3922 27.5045C34.6783 29.3038 33.0716 31.1245 31.572 33.0309C20.9249 46.3541 14.8836 62.6118 14.348 79.8335C14.3266 80.1762 14.348 80.519 14.348 80.8832L11.5631 170.976C11.5202 171.747 11.4345 172.389 11.3274 172.903C11.0703 173.91 10.6847 174.617 10.0635 174.981C9.46363 175.431 8.52102 175.645 7.23565 175.645C7.10712 175.645 7 175.838 7 176.288C7 176.738 7.10712 176.952 7.23565 176.952L11.6488 176.845C14.0695 176.695 16.019 176.63 17.5401 176.63C19.3396 176.63 21.6104 176.695 24.3097 176.845L28.8299 176.952C28.9799 176.952 29.0441 176.738 29.0441 176.288C29.0441 175.838 28.9799 175.645 28.8299 175.645C27.0946 175.645 25.8307 175.431 24.9738 174.981C24.1597 174.531 23.6027 173.782 23.3028 172.689C23.1528 172.218 23.3885 171.64 23.3028 170.976V131.413C22.7458 113.484 25.338 95.7486 34.9354 80.6047C36.7349 77.7559 38.513 75.2068 40.1198 73.279C42.0478 70.8799 44.1258 68.5881 46.2681 66.3818C46.7394 65.9106 47.2107 65.4179 47.682 64.9253C58.4149 54.2153 70.8616 45.7972 84.4008 39.9924C86.4574 39.1141 88.514 38.3002 90.6134 37.5505C91.4918 37.2077 92.3915 36.9078 93.2913 36.5865C94.341 36.9507 95.3907 37.3148 96.4619 37.7004C98.647 38.4929 100.789 39.3712 102.91 40.3137C116.171 46.1185 128.361 54.4081 138.901 64.9253C139.65 65.6535 140.357 66.4032 141.064 67.1529C141.107 67.1957 141.15 67.2171 141.171 67.26C143.335 69.5519 145.392 71.8868 147.341 74.3072C147.384 74.3501 147.427 74.3928 147.47 74.4785C148.412 75.6352 149.398 77.0061 150.405 78.5269C160.88 94.1421 163.88 112.799 163.216 131.584V170.976C163.173 171.747 163.087 172.389 162.98 172.903C162.744 173.91 162.337 174.617 161.737 174.981C161.138 175.431 160.174 175.645 158.91 175.645C158.76 175.645 158.674 175.838 158.674 176.288C158.674 176.738 158.76 176.952 158.91 176.952L163.301 176.845C165.722 176.695 167.693 176.63 169.193 176.63C171.013 176.63 173.263 176.695 175.984 176.845L180.482 176.952C180.632 176.952 180.718 176.738 180.718 176.288C180.718 175.838 180.632 175.645 180.482 175.645ZM143.806 26.6692C139.479 26.198 135.152 25.9837 130.76 25.9837C127.804 25.9837 124.89 26.0907 121.977 26.2835C120.156 25.1483 118.313 24.0774 116.407 23.0492H116.385C116.235 22.9635 116.085 22.8779 115.957 22.7922C112.379 20.8644 108.737 19.0865 104.988 17.5014C103.681 16.9445 102.375 16.4304 101.068 15.9163C103.296 15.3594 105.567 14.8882 107.837 14.4598C112.251 13.6244 116.749 13.0461 121.312 12.7462C129.496 15.9806 137.101 20.6715 143.806 26.6905V26.6692ZM86.1146 7.9267C86.2432 7.9267 86.3503 7.92666 86.5003 7.88382C88.8996 7.6482 91.3204 7.54103 93.784 7.54103C94.3624 7.54103 94.9409 7.54105 95.5407 7.56247C97.4688 7.60531 99.3968 7.71248 101.282 7.90526C104.388 8.20514 107.452 8.69781 110.43 9.38325C108.266 9.72597 106.124 10.1115 103.981 10.5828H103.96C101.539 11.0968 99.0969 11.6965 96.6761 12.3605C95.6264 12.6604 94.5981 12.9817 93.527 13.303C92.6058 13.0031 91.6846 12.7461 90.7206 12.489C90.6991 12.4462 90.6777 12.4463 90.6563 12.4463C88.3212 11.7823 85.9647 11.1825 83.5867 10.6684C83.5225 10.6684 83.4368 10.6469 83.3725 10.6255C81.2517 10.1757 79.0879 9.76872 76.9242 9.426C79.9234 8.74056 83.0083 8.22658 86.1146 7.9267ZM66.1914 12.7675C70.6902 13.0888 75.1461 13.6671 79.5378 14.5025C79.5807 14.5025 79.6235 14.5025 79.6664 14.524C81.8087 14.9309 83.9081 15.4022 86.0075 15.8949C84.7007 16.409 83.3939 16.923 82.0871 17.4799C78.5095 19.0008 75.0819 20.6929 71.6756 22.4494C71.6756 22.4708 71.6542 22.4708 71.6542 22.4708H71.6328L71.6114 22.5137C71.5471 22.5565 71.4828 22.5994 71.4186 22.6208C69.2549 23.7989 67.134 25.0198 65.056 26.305C61.9925 26.0908 58.929 25.9837 55.8441 25.9837C51.8166 25.9837 47.832 26.1764 43.8902 26.562C50.5313 20.6072 58.0721 15.9805 66.1914 12.7675ZM18.954 78.3555C19.0182 77.2202 19.0825 76.1064 19.1896 75.014C19.2325 74.9283 19.2325 74.8641 19.2325 74.7999C20.8392 58.7134 27.566 43.7622 38.5987 31.7885C44.2544 30.9317 50.0171 30.5462 55.8441 30.5462C56.7867 30.5462 57.7508 30.5461 58.7148 30.5675C53.252 34.4445 48.1105 38.8143 43.3118 43.6123C34.914 52.0304 27.8659 61.4552 22.2745 71.7582L22.0603 72.1652C20.9677 74.2001 19.9394 76.2563 18.954 78.3555ZM83.244 35.5584C82.4942 35.9011 81.723 36.2439 80.9732 36.5652C68.1194 42.3058 56.4654 50.1669 46.2681 59.9558C45.6469 60.5556 45.047 61.1339 44.4686 61.7337C42.969 63.2117 41.5122 64.7538 40.1198 66.3175C32.1504 75.1211 25.5736 84.9316 20.5178 95.6201V86.1524C21.3533 84.0104 22.2745 81.9113 23.2385 79.8549C23.3028 79.7478 23.3671 79.6408 23.4099 79.5123C27.3731 71.1799 32.3433 63.276 38.2774 55.9932C38.5987 55.5862 38.9201 55.2005 39.2414 54.8364C41.5337 52.0732 43.9544 49.3958 46.5252 46.8468C49.1174 44.2335 51.8381 41.7702 54.6445 39.4569C54.9015 39.2212 55.18 39.0071 55.4371 38.7929C58.8862 35.9654 62.4638 33.3735 66.1914 30.9745C67.9266 31.1244 69.6405 31.3172 71.3543 31.5314C71.44 31.5314 71.5043 31.5529 71.5899 31.5529C73.3252 31.8099 75.0605 32.067 76.7957 32.3883C79.902 32.9452 83.0083 33.6307 86.0504 34.4232C85.1078 34.7874 84.1866 35.1729 83.244 35.5584ZM93.2913 31.8314C89.5209 30.6104 85.6862 29.5822 81.8301 28.7469C80.8018 28.5113 79.7735 28.3185 78.7666 28.1257C77.7169 27.9115 76.6672 27.7402 75.596 27.5688H75.5746C74.5891 27.3974 73.6037 27.2474 72.6397 27.1189C73.3252 26.7334 74.0107 26.3693 74.6963 25.9837C76.2815 25.1484 77.8883 24.3558 79.5164 23.5847C79.5592 23.5847 79.6235 23.5418 79.6664 23.5204C84.1652 21.3998 88.8139 19.5791 93.5484 18.0583C98.5613 19.6648 103.467 21.614 108.202 23.8845C109.701 24.5914 111.137 25.3411 112.615 26.1123C113.193 26.4336 113.772 26.7335 114.35 27.0762C113.472 27.1833 112.615 27.3118 111.736 27.4403C110.665 27.6116 109.594 27.8044 108.523 27.9972H108.502C107.516 28.19 106.552 28.3613 105.588 28.5755C101.411 29.4537 97.3188 30.5462 93.2913 31.8314ZM166.108 95.6629C161.245 85.4241 154.989 75.9351 147.47 67.3885L147.341 67.26C145.67 65.375 143.935 63.533 142.135 61.7337C141.814 61.4124 141.514 61.1125 141.171 60.7912C141.15 60.7484 141.107 60.7055 141.064 60.6627C130.867 50.7453 119.213 42.7555 106.338 36.8864C105.331 36.4366 104.346 35.9868 103.339 35.5584C102.396 35.1729 101.496 34.7874 100.532 34.4232C104.003 33.5236 107.495 32.7738 111.051 32.174C112.615 31.8956 114.2 31.6815 115.764 31.4673C117.435 31.2531 119.127 31.0817 120.841 30.9318C121.912 30.8461 134.937 41.5989 134.937 41.5989C136.865 43.2696 138.729 45.0261 140.55 46.8468C142.371 48.6675 144.128 50.531 145.82 52.4803L147.47 54.3009V54.3867C153.832 61.9265 159.145 70.1731 163.387 78.891C164.351 80.9259 165.272 82.9609 166.108 85.0172V95.6629ZM164.629 71.4369C159.06 61.2624 152.076 51.9447 143.785 43.6123C138.943 38.8143 133.802 34.4445 128.339 30.5675C129.132 30.5461 129.967 30.5462 130.76 30.5462C136.973 30.5462 143.099 31.0174 149.141 31.9384C160.152 43.9979 166.815 59.0562 168.378 75.2068C168.507 76.6206 168.614 78.0986 168.678 79.5337C167.393 76.792 166.065 74.093 164.629 71.4369Z" fill="#1C1A18"/>
<path d="M252.12 175.859C249.078 175.859 245.479 175.731 241.302 175.452C239.781 175.367 237.896 175.26 235.603 175.174C233.418 175.088 230.955 175.045 228.213 175.045L217.694 175.174C215.787 175.26 213.238 175.302 210.003 175.302C209.81 175.302 209.725 175.024 209.725 174.467C209.725 173.91 209.81 173.632 210.003 173.632C213.045 173.632 215.273 173.396 216.687 172.946C218.101 172.496 219.065 171.618 219.536 170.333C220.115 168.962 220.393 166.884 220.393 164.143V100.375C220.393 97.6121 220.115 95.5986 219.536 94.3134C219.065 93.0282 218.122 92.15 216.687 91.7002C215.359 91.1433 213.217 90.8648 210.282 90.8648C210.003 90.8648 209.853 90.5863 209.853 90.0294C209.853 89.4725 210.003 89.1941 210.282 89.1941L217.822 89.3226C222.193 89.5154 225.642 89.601 228.213 89.601C232.111 89.601 236.075 89.4726 240.166 89.1941C245.094 89.0013 248.414 88.9156 250.128 88.9156C259.704 88.9156 268.188 90.7577 275.6 94.4205C283.098 98.0833 288.882 103.096 292.952 109.436C297.023 115.776 299.079 122.888 299.079 130.792C299.079 139.702 296.937 147.585 292.674 154.482C288.496 161.272 282.819 166.563 275.6 170.312C268.488 173.974 260.668 175.816 252.12 175.816V175.859ZM250.685 172.689C256.748 172.689 262.104 171.211 266.752 168.277C271.401 165.256 275 160.801 277.571 154.911C280.227 149.042 281.555 142.016 281.555 133.833C281.555 125.651 280.313 118.968 277.849 112.627C275.386 106.201 271.872 101.146 267.331 97.4836C262.789 93.8208 257.519 91.9787 251.542 91.9787C245.565 91.9787 241.623 92.5355 239.46 93.6279C237.274 94.7204 236.182 97.0766 236.182 100.654V162.622C236.182 166.285 237.167 168.919 239.16 170.461C241.152 171.939 244.987 172.668 250.685 172.668V172.689Z" fill="#1C1A18"/>
<path d="M365.083 122.288C365.083 119.525 364.89 117.511 364.505 116.226C364.226 114.855 363.562 113.891 362.513 113.334C361.57 112.777 360.049 112.499 357.971 112.499C357.692 112.499 357.542 112.221 357.542 111.664C357.542 111.107 357.692 110.828 357.971 110.828L364.505 110.957C368.104 111.15 370.867 111.235 372.753 111.235C374.466 111.235 377.016 111.15 380.443 110.957L386.849 110.828C387.127 110.828 387.277 111.107 387.277 111.664C387.277 112.221 387.127 112.499 386.849 112.499C384.664 112.499 383.057 112.777 382.007 113.334C380.958 113.784 380.251 114.662 379.865 115.948C379.479 117.233 379.287 119.246 379.287 122.009V164.143C379.287 166.906 379.479 168.962 379.865 170.333C380.251 171.618 380.915 172.496 381.857 172.946C382.907 173.396 384.471 173.632 386.549 173.632C386.827 173.632 386.977 173.91 386.977 174.467C386.977 175.024 386.827 175.302 386.549 175.302L377.294 175.174L367.761 175.302C366.626 175.302 365.855 175.174 365.49 174.895C365.212 174.617 365.062 173.889 365.062 172.689V122.288H365.083ZM370.482 158.102C366.219 164.614 361.527 169.391 356.407 172.432C351.373 175.452 345.824 176.973 339.761 176.973C333.227 176.973 327.722 175.281 323.266 171.875C318.81 168.469 316.582 163.243 316.582 156.174V122.009C316.582 119.246 316.432 117.233 316.153 115.948C315.875 114.662 315.339 113.784 314.59 113.334C313.84 112.777 312.64 112.499 311.033 112.499C310.841 112.499 310.755 112.221 310.755 111.664C310.755 111.107 310.841 110.828 311.033 110.828L316.582 110.957C319.624 111.15 322.088 111.235 323.973 111.235C326.244 111.235 329.093 111.15 332.499 110.957L338.198 110.828C338.39 110.828 338.476 111.107 338.476 111.664C338.476 112.221 338.39 112.499 338.198 112.499C336.012 112.499 334.406 112.777 333.356 113.334C332.306 113.891 331.599 114.855 331.214 116.226C330.828 117.511 330.635 119.525 330.635 122.288V152.854C330.635 159.837 331.964 164.828 334.62 167.87C337.362 170.89 340.983 172.411 345.439 172.411C354.265 172.411 361.806 166.949 368.061 156.024L370.482 158.081V158.102Z" fill="#1C1A18"/>
<path d="M428.195 173.653C428.388 173.653 428.473 173.932 428.473 174.488C428.473 175.045 428.388 175.324 428.195 175.324C425.346 175.324 423.118 175.281 421.511 175.195L411.828 175.067L402.573 175.195C400.859 175.281 398.503 175.324 395.461 175.324C395.268 175.324 395.182 175.045 395.182 174.488C395.182 173.932 395.268 173.653 395.461 173.653C398.117 173.653 400.067 173.418 401.288 172.968C402.53 172.518 403.366 171.64 403.859 170.354C404.33 168.984 404.566 166.906 404.566 164.164V122.031C404.566 119.268 404.33 117.254 403.859 115.969C403.473 114.684 402.68 113.806 401.438 113.356C400.195 112.799 398.31 112.52 395.739 112.52C395.461 112.52 395.311 112.242 395.311 111.685C395.311 111.128 395.461 110.85 395.739 110.85L402.702 110.978C406.494 111.171 409.536 111.257 411.807 111.257C413.606 111.257 415.277 111.214 416.777 111.128C418.298 111.043 419.626 110.935 420.761 110.85C423.889 110.571 426.824 110.443 429.587 110.443C436.978 110.443 442.634 111.599 446.512 113.891C450.411 116.183 452.339 119.482 452.339 123.809C452.339 127.579 450.968 131.07 448.204 134.283C445.548 137.496 441.841 140.067 437.107 141.994C432.458 143.836 427.338 144.757 421.747 144.757C418.705 144.757 416.113 144.565 413.927 144.201L413.777 141.18C416.155 141.823 419.133 142.144 422.732 142.144C428.131 142.144 431.88 140.945 433.979 138.567C436.057 136.082 437.107 132.42 437.107 127.557C437.107 118.004 433.508 113.227 426.288 113.227C424.296 113.227 422.818 113.463 421.875 113.913C420.933 114.363 420.269 115.241 419.883 116.526C419.497 117.725 419.305 119.653 419.305 122.309V164.185C419.305 167.034 419.497 169.091 419.883 170.376C420.354 171.661 421.168 172.539 422.304 172.989C423.546 173.439 425.474 173.674 428.131 173.674L428.195 173.653ZM471.726 173.653C472.005 173.653 472.155 173.932 472.155 174.488C472.155 175.045 472.005 175.324 471.726 175.324H448.397C446.983 175.324 444.369 172.475 440.577 166.777C436.786 160.994 432.33 153.197 427.21 143.365L438.585 140.473C443.791 149.02 448.268 155.66 451.953 160.437C455.745 165.214 459.151 168.598 462.193 170.633C465.321 172.646 468.491 173.653 471.726 173.653Z" fill="#1C1A18"/>
<path d="M497.734 164.164C497.734 166.927 497.969 168.984 498.441 170.354C498.912 171.64 499.769 172.518 501.011 172.968C502.254 173.418 504.246 173.653 506.988 173.653C507.181 173.653 507.267 173.932 507.267 174.488C507.267 175.045 507.181 175.324 506.988 175.324C504.053 175.324 501.783 175.281 500.154 175.195L490.471 175.067L481.217 175.195C479.503 175.281 477.146 175.324 474.104 175.324C473.911 175.324 473.826 175.045 473.826 174.488C473.826 173.932 473.911 173.653 474.104 173.653C476.846 173.653 478.839 173.418 480.081 172.968C481.409 172.518 482.309 171.64 482.78 170.354C483.252 168.984 483.487 166.906 483.487 164.164V122.031C483.487 119.268 483.252 117.254 482.78 115.969C482.309 114.684 481.409 113.806 480.081 113.356C478.839 112.799 476.846 112.52 474.104 112.52C473.911 112.52 473.826 112.242 473.826 111.685C473.826 111.128 473.911 110.85 474.104 110.85L481.217 110.978C485.008 111.171 488.093 111.257 490.471 111.257C493.042 111.257 496.298 111.171 500.283 110.978L506.967 110.85C507.16 110.85 507.245 111.128 507.245 111.685C507.245 112.242 507.16 112.52 506.967 112.52C504.31 112.52 502.318 112.799 500.99 113.356C499.747 113.913 498.912 114.877 498.419 116.247C497.948 117.533 497.712 119.546 497.712 122.309V164.185L497.734 164.164Z" fill="#1C1A18"/>
<path d="M538.244 163.886C538.244 166.649 538.394 168.705 538.673 170.076C539.059 171.361 539.723 172.282 540.665 172.839C541.715 173.396 543.279 173.674 545.357 173.674C545.55 173.674 545.635 173.953 545.635 174.51C545.635 175.067 545.55 175.345 545.357 175.345C542.615 175.345 540.43 175.302 538.823 175.217L530.575 175.088L522.756 175.217C521.235 175.302 519.114 175.345 516.35 175.345C516.157 175.345 516.072 175.067 516.072 174.51C516.072 173.953 516.157 173.674 516.35 173.674C518.535 173.674 520.142 173.439 521.192 172.989C522.327 172.539 523.099 171.661 523.463 170.376C523.848 169.005 524.041 166.927 524.041 164.185V122.052C524.041 119.289 523.848 117.276 523.463 115.99C523.077 114.705 522.37 113.827 521.32 113.377C520.378 112.82 518.857 112.542 516.779 112.542C516.5 112.542 516.35 112.263 516.35 111.706C516.35 111.149 516.5 110.871 516.779 110.871L526.033 111L535.567 110.871C536.702 110.871 537.409 111.064 537.709 111.428C538.095 111.706 538.287 112.392 538.287 113.484V163.886H538.244ZM532.846 128.071C537.109 121.645 541.758 116.912 546.792 113.891C551.827 110.764 557.461 109.2 563.716 109.2C570.357 109.2 575.863 111.042 580.212 114.705C584.582 118.282 586.746 124.473 586.746 133.298V164.143C586.746 166.906 586.896 168.962 587.174 170.333C587.453 171.618 587.988 172.496 588.738 172.946C589.488 173.396 590.688 173.632 592.294 173.632C592.487 173.632 592.573 173.91 592.573 174.467C592.573 175.024 592.487 175.302 592.294 175.302C589.916 175.302 588.074 175.26 586.746 175.174L579.355 175.045L570.829 175.174C569.415 175.26 567.508 175.302 565.13 175.302C564.937 175.302 564.852 175.024 564.852 174.467C564.852 173.91 564.937 173.632 565.13 173.632C567.315 173.632 568.922 173.353 569.972 172.796C571.021 172.239 571.728 171.318 572.114 170.033C572.5 168.662 572.692 166.584 572.692 163.843V136.447C572.692 127.814 571.364 121.902 568.708 118.689C566.137 115.391 562.581 113.741 558.039 113.741C553.498 113.741 549.599 115.027 545.807 117.597C542.101 120.167 538.609 124.387 535.288 130.278L532.867 128.071H532.846Z" fill="#1C1A18"/>
</svg>
