<svg width="91" height="24" viewBox="0 0 91 24" fill="none" xmlns="http://www.w3.org/2000/svg">
<path d="M11.6332 21.7496C10.9436 21.7496 10.1246 21.7183 9.1764 21.6557C8.83159 21.6348 8.40058 21.614 7.88336 21.5931C7.38769 21.5723 6.82737 21.5618 6.2024 21.5618L3.81026 21.5931C3.37925 21.614 2.79738 21.6244 2.06465 21.6244C2.02155 21.6244 2 21.5618 2 21.4366C2 21.3114 2.02155 21.2488 2.06465 21.2488C2.75428 21.2488 3.26072 21.1967 3.58398 21.0923C3.90724 20.988 4.12275 20.7898 4.2305 20.4977C4.35981 20.1847 4.42446 19.7152 4.42446 19.0892V4.59781C4.42446 3.97183 4.35981 3.51278 4.2305 3.22066C4.12275 2.92853 3.90724 2.73031 3.58398 2.62598C3.28227 2.50078 2.79738 2.43818 2.1293 2.43818C2.06465 2.43818 2.03233 2.37559 2.03233 2.25039C2.03233 2.1252 2.06465 2.0626 2.1293 2.0626L3.84259 2.0939C4.83393 2.13563 5.62053 2.15649 6.2024 2.15649C7.08598 2.15649 7.99111 2.1252 8.91779 2.0626C10.0384 2.02087 10.7927 2 11.1806 2C13.3573 2 15.286 2.41732 16.967 3.25196C18.6695 4.08659 19.9841 5.22379 20.9108 6.66354C21.8375 8.10329 22.3008 9.7204 22.3008 11.5149C22.3008 13.5389 21.8159 15.3333 20.8461 16.8983C19.8979 18.4424 18.6049 19.6421 16.967 20.4977C15.3507 21.3323 13.5728 21.7496 11.6332 21.7496ZM11.3099 21.0297C12.6892 21.0297 13.9068 20.6959 14.9628 20.0282C16.0188 19.3396 16.8377 18.3276 17.4196 16.9922C18.023 15.6568 18.3247 14.0605 18.3247 12.2034C18.3247 10.4298 18.0445 8.82316 17.4842 7.38341C16.9239 5.9228 16.1265 4.77517 15.0921 3.94053C14.0577 3.1059 12.8616 2.68858 11.5039 2.68858C10.1677 2.68858 9.25183 2.81377 8.75616 3.06416C8.2605 3.31455 8.01266 3.84664 8.01266 4.66041V18.7449C8.01266 19.5796 8.23895 20.1742 8.69151 20.529C9.14408 20.8628 10.0169 21.0297 11.3099 21.0297Z" fill="#1C1917"/>
<path d="M37.3027 9.57434C37.3027 8.94836 37.2596 8.48931 37.1734 8.19718C37.1087 7.88419 36.9579 7.6651 36.7208 7.53991C36.5053 7.41471 36.1605 7.35211 35.6864 7.35211C35.6217 7.35211 35.5894 7.28952 35.5894 7.16432C35.5894 7.03912 35.6217 6.97653 35.6864 6.97653L37.1734 7.00783C37.9923 7.04956 38.6173 7.07042 39.0483 7.07042C39.4362 7.07042 40.0181 7.04956 40.7939 7.00783L42.2486 6.97653C42.3132 6.97653 42.3456 7.03912 42.3456 7.16432C42.3456 7.28952 42.3132 7.35211 42.2486 7.35211C41.7529 7.35211 41.3865 7.41471 41.1495 7.53991C40.9124 7.64424 40.7508 7.84246 40.6646 8.13459C40.5784 8.42671 40.5353 8.88576 40.5353 9.51174V19.0892C40.5353 19.7152 40.5784 20.1847 40.6646 20.4977C40.7508 20.7898 40.9016 20.988 41.1172 21.0923C41.3542 21.1967 41.7098 21.2488 42.1839 21.2488C42.2486 21.2488 42.2809 21.3114 42.2809 21.4366C42.2809 21.5618 42.2486 21.6244 42.1839 21.6244L40.0827 21.5931L37.9169 21.6244C37.6583 21.6244 37.4859 21.5931 37.3997 21.5305C37.335 21.4679 37.3027 21.301 37.3027 21.0297V9.57434ZM38.5311 17.7121C37.5613 19.1935 36.4945 20.2786 35.3308 20.9671C34.1886 21.6557 32.9279 22 31.5486 22C30.0616 22 28.8117 21.614 27.7988 20.8419C26.7859 20.0699 26.2795 18.8805 26.2795 17.2739V9.51174C26.2795 8.88576 26.2471 8.42671 26.1825 8.13459C26.1178 7.84246 25.9993 7.64424 25.8269 7.53991C25.6545 7.41471 25.3851 7.35211 25.0187 7.35211C24.9756 7.35211 24.9541 7.28952 24.9541 7.16432C24.9541 7.03912 24.9756 6.97653 25.0187 6.97653L26.2795 7.00783C26.9691 7.04956 27.5294 7.07042 27.9604 7.07042C28.4776 7.07042 29.1242 7.04956 29.9 7.00783L31.193 6.97653C31.2361 6.97653 31.2577 7.03912 31.2577 7.16432C31.2577 7.28952 31.2361 7.35211 31.193 7.35211C30.6974 7.35211 30.331 7.41471 30.0939 7.53991C29.8569 7.6651 29.6953 7.88419 29.6091 8.19718C29.5228 8.48931 29.4797 8.94836 29.4797 9.57434V16.5227C29.4797 18.1085 29.7815 19.2457 30.3849 19.9343C31.0098 20.6228 31.8288 20.9671 32.8417 20.9671C34.8459 20.9671 36.5592 19.7256 37.9815 17.2426L38.5311 17.7121Z" fill="#1C1917"/>
<path d="M51.6436 21.2488C51.6867 21.2488 51.7083 21.3114 51.7083 21.4366C51.7083 21.5618 51.6867 21.6244 51.6436 21.6244C50.9971 21.6244 50.4906 21.614 50.1243 21.5931L47.9261 21.5618L45.8249 21.5931C45.437 21.614 44.8982 21.6244 44.2086 21.6244C44.1655 21.6244 44.1439 21.5618 44.1439 21.4366C44.1439 21.3114 44.1655 21.2488 44.2086 21.2488C44.812 21.2488 45.2538 21.1967 45.534 21.0923C45.8141 20.988 46.0081 20.7898 46.1158 20.4977C46.2236 20.1847 46.2775 19.7152 46.2775 19.0892V9.51174C46.2775 8.88576 46.2236 8.42671 46.1158 8.13459C46.0296 7.84246 45.8465 7.64424 45.5663 7.53991C45.2861 7.41471 44.8551 7.35211 44.2732 7.35211C44.2086 7.35211 44.1763 7.28952 44.1763 7.16432C44.1763 7.03912 44.2086 6.97653 44.2732 6.97653L45.8572 7.00783C46.7193 7.04956 47.4089 7.07042 47.9261 7.07042C48.3356 7.07042 48.7127 7.05999 49.0575 7.03912C49.4023 7.01826 49.704 6.99739 49.9627 6.97653C50.6738 6.91393 51.3419 6.88263 51.9669 6.88263C53.6478 6.88263 54.9301 7.14345 55.8137 7.6651C56.6973 8.18675 57.1391 8.93792 57.1391 9.91862C57.1391 10.7741 56.8266 11.567 56.2016 12.2973C55.5982 13.0276 54.7577 13.6119 53.6802 14.0501C52.6242 14.4674 51.4604 14.6761 50.1889 14.6761C49.4993 14.6761 48.9067 14.6343 48.411 14.5509L48.3787 13.8623C48.9174 14.0083 49.5963 14.0814 50.4152 14.0814C51.6436 14.0814 52.4949 13.8101 52.969 13.2676C53.4431 12.7042 53.6802 11.8696 53.6802 10.7637C53.6802 8.59364 52.8612 7.50861 51.2234 7.50861C50.7708 7.50861 50.4368 7.56077 50.2213 7.6651C50.0057 7.76943 49.8549 7.96766 49.7687 8.25978C49.6825 8.53104 49.6394 8.96922 49.6394 9.57434V19.0892C49.6394 19.736 49.6825 20.2055 49.7687 20.4977C49.8764 20.7898 50.0596 20.988 50.3182 21.0923C50.5984 21.1967 51.0402 21.2488 51.6436 21.2488ZM61.5354 21.2488C61.6001 21.2488 61.6324 21.3114 61.6324 21.4366C61.6324 21.5618 61.6001 21.6244 61.5354 21.6244H56.2339C55.9107 21.6244 55.318 20.9776 54.456 19.6839C53.594 18.3693 52.5811 16.5957 51.4173 14.3631L54.0034 13.7058C55.1887 15.6463 56.2016 17.1591 57.0421 18.2441C57.9041 19.3292 58.6799 20.1012 59.3696 20.5602C60.0807 21.0193 60.8027 21.2488 61.5354 21.2488Z" fill="#1C1917"/>
<path d="M67.4471 19.0892C67.4471 19.7152 67.5009 20.1847 67.6087 20.4977C67.7164 20.7898 67.9104 20.988 68.1906 21.0923C68.4707 21.1967 68.9233 21.2488 69.5482 21.2488C69.5914 21.2488 69.6129 21.3114 69.6129 21.4366C69.6129 21.5618 69.5914 21.6244 69.5482 21.6244C68.8802 21.6244 68.363 21.614 67.9966 21.5931L65.7984 21.5618L63.6972 21.5931C63.3093 21.614 62.7705 21.6244 62.0809 21.6244C62.0378 21.6244 62.0163 21.5618 62.0163 21.4366C62.0163 21.3114 62.0378 21.2488 62.0809 21.2488C62.7059 21.2488 63.1585 21.1967 63.4386 21.0923C63.7403 20.988 63.945 20.7898 64.0528 20.4977C64.1606 20.1847 64.2144 19.7152 64.2144 19.0892V9.51174C64.2144 8.88576 64.1606 8.42671 64.0528 8.13459C63.945 7.84246 63.7403 7.64424 63.4386 7.53991C63.1585 7.41471 62.7059 7.35211 62.0809 7.35211C62.0378 7.35211 62.0163 7.28952 62.0163 7.16432C62.0163 7.03912 62.0378 6.97653 62.0809 6.97653L63.6972 7.00783C64.5592 7.04956 65.2596 7.07042 65.7984 7.07042C66.3803 7.07042 67.1238 7.04956 68.0289 7.00783L69.5482 6.97653C69.5914 6.97653 69.6129 7.03912 69.6129 7.16432C69.6129 7.28952 69.5914 7.35211 69.5482 7.35211C68.9448 7.35211 68.4923 7.41471 68.1906 7.53991C67.9104 7.6651 67.7164 7.88419 67.6087 8.19718C67.5009 8.48931 67.4471 8.94836 67.4471 9.57434V19.0892Z" fill="#1C1917"/>
<path d="M76.6514 19.0266C76.6514 19.6526 76.6837 20.1221 76.7484 20.4351C76.8346 20.7272 76.9855 20.9358 77.201 21.061C77.438 21.1862 77.7936 21.2488 78.2677 21.2488C78.3108 21.2488 78.3324 21.3114 78.3324 21.4366C78.3324 21.5618 78.3108 21.6244 78.2677 21.6244C77.6427 21.6244 77.1471 21.614 76.7807 21.5931L74.9058 21.5618L73.1279 21.5931C72.7831 21.614 72.2982 21.6244 71.6732 21.6244C71.6301 21.6244 71.6085 21.5618 71.6085 21.4366C71.6085 21.3114 71.6301 21.2488 71.6732 21.2488C72.1689 21.2488 72.5352 21.1967 72.7723 21.0923C73.0309 20.988 73.2033 20.7898 73.2895 20.4977C73.3757 20.1847 73.4188 19.7152 73.4188 19.0892V9.51174C73.4188 8.88576 73.3757 8.42671 73.2895 8.13459C73.2033 7.84246 73.0417 7.64424 72.8046 7.53991C72.5891 7.41471 72.2443 7.35211 71.7702 7.35211C71.7055 7.35211 71.6732 7.28952 71.6732 7.16432C71.6732 7.03912 71.7055 6.97653 71.7702 6.97653L73.8714 7.00783L76.0372 6.97653C76.2958 6.97653 76.4575 7.01826 76.5221 7.10172C76.6083 7.16432 76.6514 7.32081 76.6514 7.57121V19.0266ZM75.423 10.8889C76.3928 9.42827 77.4488 8.35368 78.591 7.6651C79.7332 6.95566 81.0154 6.60094 82.4378 6.60094C83.9463 6.60094 85.1963 7.01826 86.1876 7.8529C87.179 8.66667 87.6746 10.0751 87.6746 12.0782V19.0892C87.6746 19.7152 87.707 20.1847 87.7716 20.4977C87.8363 20.7898 87.9548 20.988 88.1272 21.0923C88.2996 21.1967 88.569 21.2488 88.9353 21.2488C88.9785 21.2488 89 21.3114 89 21.4366C89 21.5618 88.9785 21.6244 88.9353 21.6244C88.3966 21.6244 87.9763 21.614 87.6746 21.5931L85.9937 21.5618L84.0541 21.5931C83.7308 21.614 83.2998 21.6244 82.7611 21.6244C82.718 21.6244 82.6964 21.5618 82.6964 21.4366C82.6964 21.3114 82.718 21.2488 82.7611 21.2488C83.2567 21.2488 83.6231 21.1862 83.8601 21.061C84.0972 20.9358 84.2588 20.7272 84.345 20.4351C84.4312 20.1221 84.4743 19.6526 84.4743 19.0266V12.7981C84.4743 10.8367 84.1726 9.49087 83.5692 8.76056C82.9873 8.00939 82.1792 7.6338 81.1447 7.6338C80.1534 7.6338 79.2267 7.92593 78.3647 8.51017C77.5242 9.09442 76.7268 10.0543 75.9726 11.3897L75.423 10.8889Z" fill="#1C1917"/>
</svg>
