<svg width="16" height="16" viewBox="0 0 16 16" fill="none" xmlns="http://www.w3.org/2000/svg">
<g clip-path="url(#clip0_502_12543)">
<path d="M3.32525 7.61776C3.32524 7.52841 3.34287 7.43993 3.37713 7.35741C3.4114 7.2749 3.46163 7.19997 3.52493 7.13693C3.58823 7.07389 3.66336 7.02398 3.746 6.99007C3.82864 6.95616 3.91716 6.93892 4.00648 6.93933L5.13589 6.94304C5.31597 6.94304 5.48867 7.0146 5.61601 7.14198C5.74335 7.26937 5.81488 7.44214 5.81488 7.62228V11.8946C5.94211 11.8568 6.10528 11.8166 6.28403 11.7747C6.40814 11.7455 6.51875 11.6752 6.59793 11.5752C6.6771 11.4752 6.7202 11.3514 6.72023 11.2239V5.92447C6.72021 5.7443 6.79174 5.57151 6.91908 5.4441C7.04641 5.31668 7.21912 5.24509 7.39922 5.24506H8.53092C8.71102 5.2451 8.88372 5.3167 9.01105 5.44411C9.13838 5.57152 9.20992 5.74431 9.20992 5.92447V10.843C9.20992 10.843 9.49313 10.7283 9.7692 10.6117C9.87172 10.5684 9.95919 10.4957 10.0207 10.4029C10.0823 10.3102 10.1151 10.2013 10.1152 10.0899V4.22606C10.1152 4.13686 10.1328 4.04854 10.1669 3.96614C10.201 3.88373 10.251 3.80885 10.314 3.74578C10.3771 3.68271 10.4519 3.63267 10.5343 3.59853C10.6166 3.56439 10.7049 3.54682 10.7941 3.54681H11.9258C12.1059 3.54681 12.2786 3.61837 12.4059 3.74575C12.5333 3.87314 12.6048 4.0459 12.6048 4.22606V9.05465C13.5859 8.34337 14.5803 7.48782 15.3694 6.45912C15.4838 6.30979 15.5596 6.13444 15.5899 5.94871C15.6201 5.76298 15.604 5.57264 15.5428 5.39467C15.0089 3.83815 14.0075 2.48458 12.6754 1.51905C11.3433 0.553517 9.74556 0.0231556 8.10071 0.000481135C3.66526 -0.0591238 -0.000397328 3.56288 3.83791e-05 8.00051C-0.00431669 9.40472 0.362044 10.7852 1.06208 12.0023C1.15862 12.1688 1.30064 12.3043 1.47147 12.3928C1.6423 12.4813 1.83483 12.5192 2.02646 12.5021C2.24056 12.4832 2.5071 12.4566 2.82397 12.4194C2.96189 12.4037 3.08922 12.3378 3.18171 12.2342C3.2742 12.1307 3.32538 11.9967 3.32552 11.8579V7.61776" fill="#78716C"/>
<path d="M3.30084 14.4696C4.49369 15.3377 5.90335 15.8587 7.37386 15.9751C8.84436 16.0915 10.3184 15.7987 11.6329 15.1291C12.9473 14.4594 14.051 13.4391 14.8218 12.1809C15.5926 10.9227 16.0004 9.47579 16.0002 8.00014C16.0002 7.81593 15.9916 7.63379 15.9793 7.45264C13.0578 11.8113 7.66352 13.8493 3.30078 14.4697" fill="#78716C"/>
</g>
<defs>
<clipPath id="clip0_502_12543">
<rect width="16" height="16" fill="white"/>
</clipPath>
</defs>
</svg>
