<svg width="16" height="16" viewBox="0 0 16 16" fill="none" xmlns="http://www.w3.org/2000/svg">
<path d="M8 0.198059C3.58 0.198059 0 3.78006 0 8.19806C0 11.7334 2.292 14.7314 5.47 15.7881C5.87 15.8634 6.01667 15.6161 6.01667 15.4034C6.01667 15.2134 6.01 14.7101 6.00667 14.0434C3.78133 14.5261 3.312 12.9701 3.312 12.9701C2.948 12.0467 2.422 11.8001 2.422 11.8001C1.69733 11.3041 2.478 11.3141 2.478 11.3141C3.28133 11.3701 3.70333 12.1381 3.70333 12.1381C4.41667 13.3614 5.576 13.0081 6.03333 12.8034C6.10533 12.2861 6.31133 11.9334 6.54 11.7334C4.76333 11.5334 2.896 10.8454 2.896 7.78006C2.896 6.90673 3.206 6.19339 3.71933 5.63339C3.62933 5.43139 3.35933 4.61806 3.78933 3.51606C3.78933 3.51606 4.45933 3.30139 5.98933 4.33606C6.62933 4.15806 7.30933 4.07006 7.98933 4.06606C8.66933 4.07006 9.34933 4.15806 9.98933 4.33606C11.5093 3.30139 12.1793 3.51606 12.1793 3.51606C12.6093 4.61806 12.3393 5.43139 12.2593 5.63339C12.7693 6.19339 13.0793 6.90673 13.0793 7.78006C13.0793 10.8534 11.2093 11.5301 9.42933 11.7267C9.70933 11.9667 9.96933 12.4574 9.96933 13.2067C9.96933 14.2774 9.95933 15.1374 9.95933 15.3974C9.95933 15.6074 10.0993 15.8574 10.5093 15.7774C13.71 14.7281 16 11.7281 16 8.19806C16 3.78006 12.418 0.198059 8 0.198059Z" fill="#1C1917"/>
</svg>
